<?xml version="1.0" encoding="utf-8"?><svg xml:space="preserve" viewBox="0 0 100 100" y="0" x="0" xmlns="http://www.w3.org/2000/svg" id="圖層_1" version="1.1" width="200px" height="200px" xmlns:xlink="http://www.w3.org/1999/xlink" style="width:100%;height:100%;background-size:initial;background-repeat-y:initial;background-repeat-x:initial;background-position-y:initial;background-position-x:initial;background-origin:initial;background-color:initial;background-clip:initial;background-attachment:initial;animation-play-state:paused" ><g class="ldl-scale" style="transform-origin:50% 50%;transform:rotate(0deg) scale(0.8, 0.8);animation-play-state:paused" ><path fill="#333" d="M75.4 67.9L25.8 39.3c-2.6-1.5-7.1-10.6-8.8-14.1-.4-.9-.4-1.9.1-2.7l1.2-2.1L81.7 57c3 1.8 8 8.3 5.7 12.4s-6.5 1.7-12-1.5z" style="fill:rgb(147, 219, 233);animation-play-state:paused" ></path>
<path fill="#333" d="M65.7 48.4L45.1 36.5l-6.7-28c-.3-1.3 1.1-2.3 2.2-1.7l5.6 3.2c.3.2.5.4.6.7l18.9 37.7z" style="fill:rgb(147, 219, 233);animation-play-state:paused" ></path>
<path d="M28 25.8l-9.7-5.5.7-12.4 4.4 2.6z" fill="#333" style="fill:rgb(147, 219, 233);animation-play-state:paused" ></path>
<path d="M12.8 80.2h75" stroke-miterlimit="10" stroke-linecap="round" stroke-width="4" stroke="#333" fill="none" style="stroke:rgb(147, 219, 233);animation-play-state:paused" ></path>
<metadata xmlns:d="https://loading.io/stock/" style="animation-play-state:paused" ><d:name style="animation-play-state:paused" >airplane</d:name>


<d:tags style="animation-play-state:paused" >landing,arrive,destination,fly,aircraft,aeronautics,aviation,airplane,transportation</d:tags>


<d:license style="animation-play-state:paused" >by</d:license>


<d:slug style="animation-play-state:paused" >uz70b0</d:slug></metadata></g><!-- generated by https://loading.io/ --></svg>