<!DOCTYPE svg PUBLIC "-//W3C//DTD SVG 1.1//EN" "http://www.w3.org/Graphics/SVG/1.1/DTD/svg11.dtd">
<!-- Uploaded to: SVG Repo, www.svgrepo.com, Transformed by: SVG Repo Mixer Tools -->
<svg width="800px" height="800px" viewBox="0 -133.45 401.142 401.142" xmlns="http://www.w3.org/2000/svg" fill="#000000" transform="matrix(-1, 0, 0, 1, 0, 0)">
<g id="SVGRepo_bgCarrier" stroke-width="0"/>
<g id="SVGRepo_tracerCarrier" stroke-linecap="round" stroke-linejoin="round"/>
<g id="SVGRepo_iconCarrier">
<defs>
<style>.a{fill:#9EC8B9;}.b{fill:#d9d9d9;}.c{fill:#87cce3;}.d{fill:#211715;}</style>
</defs>
<path class="a" d="M224.882,15.129q.24-.406.482-.812a4.926,4.926,0,0,0,.771-2.306c.045-1.349-2.208-3.292-3.213-4.192-.888-.8-6.468-1.163-12.111.87A622.55,622.55,0,0,0,152.4,33.6l-.615.36c19.536,1.52,40.519,3.118,60.107,4.511C216.257,30.439,220.47,22.584,224.882,15.129Z"/>
<path class="a" d="M183.4,109.657l-3.435-.8c-.326,3.116-.654,6.256-.982,9.367-.051.455-.1.917-.192,1.367a9.685,9.685,0,0,0,5.343-2.479,11.946,11.946,0,0,0,3.053-6.578Z"/>
<path class="a" d="M230.478,91.893c26.044-1.906,55.172-3.212,84.808-7.237,22.049-2.994,43.847-5.714,65.118-12.245,5.124-1.573,9.508-3.545,12.444-7.407,2.319-3.049,6.173-10.437.889-12.815a23.21,23.21,0,0,0-5.926-1.333c-38-3.778-105.084-8.063-129.237-9.374-41.025-2.228-111.6-7.895-152.56-11.136a149.867,149.867,0,0,0-31.925.565l-9.018,1.426c-9.316,1.494-17.908,3.892-25.228,7.708C24.866,47.852,10.2,58.6,4.062,74.336a20.42,20.42,0,0,0-1.682,8.51c.387,6.682,5.732,12.093,11.563,15.379,14.1,7.942,42.757,7.742,60.091,7.52,18.222-.889,34.258-.626,51.555-1.556Z"/>
<path class="b" d="M336.622,81.694c-7.08,1.051-14.195,1.992-21.336,2.962-29.636,4.025-58.764,5.331-84.808,7.237l-104.889,12.3c-17.3.93-33.333.667-51.555,1.556-17.334.222-45.995.422-60.091-7.52C8.112,94.939,2.767,89.528,2.38,82.846a20.42,20.42,0,0,1,1.682-8.51,46.671,46.671,0,0,1,5.287-9.8C5.159,77.266,20.44,82.9,29.145,84.6c19.581,3.807,66.011,3.365,94.814,1.74,4-.592,6.64-2.557,10.12-2.92,3.321-.346,61.025.764,64.621.55,25.556,0,73.111-3.926,90.593-5.111,8.091-.549,32.989-1.765,54.537-3.876,2.966,1.286,6.282,2.6,9.785,3.9C347.977,79.934,342.311,80.85,336.622,81.694Z"/>
<path class="a" d="M226.7,90.189c15.662,7.723,24.386,12.193,42.148,19.852,10.257,4.423,19.325,9.967,30.494,9.938,2.457-.006,5.042-.313,7.264.735s3.673,4.174,2.042,6.012c-13.1,8.127-29.951,4.954-44.975,1.51-43.731-10.023-90.352-20.987-134.084-31.01-6.3-2.422-7.222-6.87-6.593-9.7,1.334-3.556,7.051-3.649,11.083-4.069,22.206-2.315,59.373.176,82.8,3.174,1.5.192,4.712.969,9.823,3.561"/>
<path class="c" d="M60.175,52.615c-.007-1.4.071-1.773-1.088-2.761-.79-.67-2.94-1.01-3.94-1.3-3.34-.98-6.38-1.63-9.72-2.59a17.132,17.132,0,0,1-8.1-4.577,115.314,115.314,0,0,0-11.467,7.1c5.212,5.949,12.925,8.845,20.508,10.934,3.67,1.01,7.42,1.85,10.72,1.52a2.354,2.354,0,0,0,1.87-1c.78-1.15,1.25-5.51,1.22-7.1C60.176,52.765,60.175,52.689,60.175,52.615Z"/>
<path class="a" d="M175.665,122.886l-.206.071c-6.28,2.21-12.93,3.13-19.53,4.04a30.781,30.781,0,0,1-8.192.081c-4.07-.53-6.926-.889-10.444-3.3a6.854,6.854,0,0,1-2.334-3.037c-1.389-2.672-1.5-5.73-1.481-8.334.02-2.154.053-7.033,2.278-10a4.819,4.819,0,0,1,4.222-2.166l3.723.225c11.96,2.755,24.085,5.564,36.262,8.391-.328,3.115-.656,6.255-.984,9.366a14.183,14.183,0,0,1-.24,1.59,3.91,3.91,0,0,1-.82,1.73A5.041,5.041,0,0,1,175.665,122.886Z"/>
<path class="a" d="M136.944,101.189a6.264,6.264,0,0,0-1.188,1.222c-2.225,2.967-2.258,7.846-2.278,10-.024,2.6.092,5.662,1.481,8.334a6.854,6.854,0,0,0,2.334,3.037c.426.291.842.552,1.251.788a4.526,4.526,0,0,0,2.9.175c1.852-.574,2.9-3.141,3.185-4.111a22.865,22.865,0,0,0,1.03-6.474,25.326,25.326,0,0,0-.622-7.693c-.4-1.579-1.5-5.167-4.278-6l-.731-.219-.047,0A4.413,4.413,0,0,0,136.944,101.189Z"/>
<path class="a" d="M378.182,49.411c3.65-15.175,6.963-29.925,10.461-44.428a2.182,2.182,0,0,0-.418-2.184,1.583,1.583,0,0,0-1.142-.39c-6.383.669-12.291,1.91-17.049,4.669s-7.541,5.6-11.418,9.5a246.179,246.179,0,0,0-24.27,28.466Z"/>
<path class="d" d="M177.389,110.517c-.288,2.739-.411,5.557-.885,8.269a1.848,1.848,0,0,1-1.341,1.737,32.651,32.651,0,0,1-3.883,1.228,104.917,104.917,0,0,1-16.316,2.966,32.976,32.976,0,0,1-8.209-.168,19.7,19.7,0,0,1-6.135-1.589,7.766,7.766,0,0,1-2.78-1.914,9.429,9.429,0,0,1-1-1.9,16.326,16.326,0,0,1-.964-6.738,23.947,23.947,0,0,1,.53-5.59c.449-1.821,1.361-4.221,3.57-4.176,3.09.063,3.09-4.737,0-4.8-6.366-.13-8.467,6.822-8.818,11.986-.332,4.9-.12,10.717,3.286,14.609,1.886,2.155,5.015,3.472,7.743,4.143a40.059,40.059,0,0,0,8.927,1.129,65.653,65.653,0,0,0,10.519-1.122c3.215-.488,6.423-1.054,9.577-1.854,3.137-.8,7.478-1.545,9.211-4.614.931-1.649.94-3.744,1.133-5.578q.318-3.014.633-6.027a2.415,2.415,0,0,0-2.4-2.4,2.454,2.454,0,0,0-2.4,2.4Z"/>
<path class="d" d="M64.433,30.023A89.632,89.632,0,0,0,41.2,36.714,102.5,102.5,0,0,0,22.542,47.957,69.215,69.215,0,0,0,7.34,63.23a49.144,49.144,0,0,0-5.157,9.4C.568,76.5-.457,80.56.2,84.766,1.3,91.749,7.148,97.258,13.09,100.5c5.214,2.841,11.119,4.333,16.929,5.356,13.089,2.307,26.5,2.46,39.752,2.342,7.969-.071,15.936-.517,23.906-.684,8.454-.176,16.911-.288,25.362-.618q3.276-.128,6.55-.3c3.073-.163,3.092-4.964,0-4.8-16.513.878-33.058.724-49.576,1.463-6.063.272-12.162.216-18.23.1-6.551-.121-13.11-.427-19.624-1.155a81.633,81.633,0,0,1-17.478-3.615C15.44,96.784,10.007,93.668,6.89,88.8a12.424,12.424,0,0,1-1.906-9.2,33.244,33.244,0,0,1,3.953-9.938A56.645,56.645,0,0,1,21.946,54.517,100.578,100.578,0,0,1,39,43.209a76.814,76.814,0,0,1,20.857-7.474c1.942-.412,3.894-.766,5.853-1.083A2.419,2.419,0,0,0,67.385,31.7a2.458,2.458,0,0,0-2.952-1.676Z"/>
<path class="d" d="M153.615,35.669c13.378-6.468,26.94-12.571,40.724-18.124q5.041-2.03,10.121-3.958c3.486-1.32,7.023-2.88,10.691-3.605a20.97,20.97,0,0,1,4.213-.4c.326,0,.653.011.978.032-.053,0,.908.095.469.03.149.022.309.048.457.085.241.059.832.384.252.031.376.228-.461-.488.082.089.206.22.455.412.674.621a9.959,9.959,0,0,1,1.184,1.246,3.059,3.059,0,0,1,.331.534c-.045-.146,0-.4-.09-.075a10.7,10.7,0,0,1-1.357,2.529c-4.282,7.285-8.277,14.734-12.309,22.16-1.474,2.715,2.669,5.141,4.145,2.422,3.883-7.152,7.733-14.325,11.837-21.355,1.014-1.736,2.289-3.458,2.48-5.517a5.73,5.73,0,0,0-1.767-4.238,11.763,11.763,0,0,0-2.85-2.591,8.377,8.377,0,0,0-3.538-.771,27.143,27.143,0,0,0-10.821,1.794q-5.611,2.031-11.171,4.208-11.484,4.485-22.772,9.458-12.3,5.389-24.385,11.247a2.422,2.422,0,0,0-.861,3.284,2.45,2.45,0,0,0,3.283.861Z"/>
<path class="d" d="M225.489,92.262c7.025,3.464,14.031,6.971,21.1,10.339,7.558,3.6,15.24,6.9,22.879,10.319,8.026,3.592,15.933,7.893,24.763,9.09a42.086,42.086,0,0,0,6.638.342c1.651-.037,4-.29,5.305.954a2.419,2.419,0,0,1,.758,1.333.88.88,0,0,1-.032.438c.021-.065.038-.066.1-.128.27-.262-.529.278-.619.328a28.807,28.807,0,0,1-5.274,2.328c-7.759,2.535-16.178,2.119-24.138.862-8.891-1.4-17.651-3.687-26.416-5.706q-28.417-6.546-56.818-13.164-28.323-6.577-56.657-13.111-3.427-.789-6.856-1.574c-3.007-.689-4.29,3.938-1.276,4.629q29.3,6.716,58.573,13.537,29.492,6.849,58.988,13.673c9.144,2.109,18.278,4.477,27.53,6.071,8.576,1.478,17.527,2.233,26.061.073a37.338,37.338,0,0,0,6.013-2.115c1.812-.808,4.156-1.714,5.076-3.586,1.98-4.026-1.479-8.348-5.363-9.281-2.355-.566-4.762-.3-7.154-.339a32.624,32.624,0,0,1-6.419-.759,63.067,63.067,0,0,1-12.411-4.387c-8.31-3.752-16.675-7.389-24.953-11.213-7.086-3.275-14.087-6.726-21.084-10.185q-2.947-1.458-5.9-2.913a2.461,2.461,0,0,0-3.284.861,2.424,2.424,0,0,0,.861,3.284Z"/>
<path class="d" d="M130.227,94.912a9.642,9.642,0,0,1-3.9-2.7,8.436,8.436,0,0,1-.557-.9c-.062-.109-.119-.224-.171-.339.138.305-.02-.059-.036-.106a9.042,9.042,0,0,1-.255-.9c-.034-.143-.061-.3-.081-.443.072.526.006-.168.007-.227,0-.241.008-.482.013-.724,0-.081.057-.507.01-.173s0-.081.036-.153a2.72,2.72,0,0,1,.818-.844,10.792,10.792,0,0,1,4.148-1.174,177.685,177.685,0,0,1,21.9-1.275,477.915,477.915,0,0,1,50.834,2.518q6.317.615,12.617,1.391c.212.027.424.055.637.08l.195.023c.241.038.48.079.719.128.662.135,1.316.312,1.963.509a40.8,40.8,0,0,1,6.365,2.654c2.753,1.383,5.186-2.756,2.423-4.145a35.565,35.565,0,0,0-10.264-3.785c-4.009-.615-8.073-.988-12.107-1.4q-13.524-1.383-27.1-2.11c-9.179-.493-18.377-.775-27.57-.647-4.047.057-8.1.195-12.133.478a80.273,80.273,0,0,0-11.379,1.238,9.713,9.713,0,0,0-5.463,2.886,6.691,6.691,0,0,0-1.409,5.172c.511,4.838,4.181,7.883,8.469,9.593a2.416,2.416,0,0,0,2.952-1.677,2.457,2.457,0,0,0-1.676-2.952Z"/>
<path class="d" d="M35.63,43.091c3.532,3.767,8.5,5.071,13.335,6.3,2.318.59,4.618,1.251,6.941,1.819.56.137,1.429.505,1.742.569l.213.209-.065-.1-.058-.2.054.193c-.065-.01-.027-.374-.021.038.005.309.007.619.006.928a21.928,21.928,0,0,1-.465,4.463c-.076.36-.174.712-.269,1.068-.028.1-.066.465.01.051-.01.055-.18.283-.168.306-.162-.339.9-.229-.047-.162a18.46,18.46,0,0,1-1.867.037C50.263,58.46,45.4,56.814,41,55.237a32.828,32.828,0,0,1-12.764-7.7c-2.152-2.224-5.545,1.172-3.394,3.394A36.98,36.98,0,0,0,38.388,59.37c5.078,1.959,10.688,3.722,16.148,4.017,2.477.135,5.268-.057,6.62-2.455.993-1.761,1.14-4.139,1.321-6.1.159-1.734.377-3.8-.536-5.366-1.2-2.059-3.536-2.566-5.664-3.1-3.251-.811-6.512-1.673-9.737-2.583A15.751,15.751,0,0,1,39.024,39.7c-2.117-2.259-5.507,1.141-3.394,3.394Z"/>
<path class="d" d="M74.089,33.311c16.746-2.242,33.486-.44,50.222.884q23.708,1.877,47.419,3.7,24.842,1.9,49.693,3.642,20.231,1.4,40.477,2.53,17.994,1.012,35.979,2.218,23.24,1.526,46.466,3.272c14.307,1.087,28.66,2.065,42.923,3.646,2.254.25,6.84.326,6.716,3.41-.1,2.552-1.69,5.305-3.27,7.241-2.465,3.02-6.1,4.661-9.724,5.855-4.783,1.577-9.687,2.844-14.584,4.011-20.056,4.782-40.727,7.413-61.185,9.807-20.238,2.368-40.576,3.659-60.9,5.01q-6.922.46-13.842.957c-3.063.223-3.087,5.025,0,4.8,20.234-1.476,40.5-2.55,60.7-4.481,10.729-1.025,21.409-2.386,32.088-3.835,10.44-1.417,20.88-2.881,31.236-4.834,5.117-.965,10.213-2.049,15.268-3.3a127.235,127.235,0,0,0,14.392-4.172c6.775-2.561,13.044-7.7,14.408-15.213.63-3.469-.417-6.862-3.794-8.413-3.43-1.575-7.519-1.649-11.224-2q-10.674-1.017-21.364-1.878-23.82-1.959-47.668-3.561-21.1-1.453-42.218-2.73c-12.068-.725-24.141-1.364-36.205-2.15q-24.662-1.606-49.3-3.49-25.1-1.876-50.194-3.868Q125.449,29.488,114.3,28.6a249.565,249.565,0,0,0-26.334-1.184,130.753,130.753,0,0,0-13.879,1.092,2.48,2.48,0,0,0-2.4,2.4c0,1.163,1.106,2.574,2.4,2.4Z"/>
<path class="a" d="M339.811,73.152c12.846,6.168,36.211,13.686,50.221,16.291,2.9.539,6.5.73,8.171-1.707a2.667,2.667,0,0,0,.051-3.174,3.971,3.971,0,0,0-1.448-.9c-9.142-4-12.418-5.133-19.661-11.994l-2.107-2.364Z"/>
<path class="d" d="M375.448,73.368A50.474,50.474,0,0,0,388.6,82.641c1.11.523,2.234,1.02,3.358,1.513l2.1.916c.471.205,2.232.652,2.458,1.129-.169-.357-.272.183-.39.325a2.155,2.155,0,0,1-.779.545,7.407,7.407,0,0,1-3.651.223c-5.21-.614-10.445-2.218-15.484-3.625q-8.96-2.5-17.744-5.587a172.591,172.591,0,0,1-17.449-7,2.466,2.466,0,0,0-3.284.861,2.422,2.422,0,0,0,.861,3.284c11.643,5.568,24.106,9.666,36.521,13.121,2.964.825,5.944,1.6,8.943,2.291a48.23,48.23,0,0,0,8.664,1.534c3.275.138,6.917-1.047,8.114-4.407a4.737,4.737,0,0,0-1.379-5.323,19.794,19.794,0,0,0-4.575-2.211,68.1,68.1,0,0,1-8.28-4.072,47.484,47.484,0,0,1-7.766-6.184c-2.247-2.119-5.647,1.269-3.394,3.394Z"/>
<path class="d" d="M380.5,50.049c2.043-8.5,4.018-17.016,6-25.53q1.471-6.319,2.963-12.634c.494-2.083,1.082-4.164,1.5-6.264.389-1.964.046-4.076-1.866-5.121-1.853-1.014-4.489-.221-6.457.079A52.727,52.727,0,0,0,376.9,1.753,34.24,34.24,0,0,0,366.65,6.359a54.772,54.772,0,0,0-8.065,6.854c-2.9,2.9-5.756,5.84-8.526,8.864a253.563,253.563,0,0,0-17.785,21.76,2.416,2.416,0,0,0,.861,3.284,2.454,2.454,0,0,0,3.283-.861q6.774-9.273,14.4-17.871a162.1,162.1,0,0,1,15.013-15.415,31.535,31.535,0,0,1,8.047-5.155,41.026,41.026,0,0,1,9.808-2.578c.826-.128,1.654-.237,2.485-.333l.453-.05q1.077.043-.246-.59c-.124.084-.193.652-.165.54-.5,2.006-.964,4.022-1.441,6.034q-1.329,5.608-2.633,11.224c-2.076,8.906-4.138,17.816-6.276,26.707-.721,3,3.906,4.283,4.629,1.276Z"/>
<path class="d" d="M48.5,47.221a64.358,64.358,0,0,0-3.941,10.171,2.4,2.4,0,0,0,4.628,1.276,39.122,39.122,0,0,1,1.63-4.88c.082-.2.153-.417.252-.611-.3.581-.035.084.016-.034q.261-.608.53-1.21c.34-.765.687-1.527,1.03-2.29a2.612,2.612,0,0,0,.242-1.849,2.4,2.4,0,0,0-4.387-.573Z"/>
<path class="d" d="M36.578,55.94c1.3-1.549,2.627-3.082,4.051-4.522.674-.681,1.369-1.341,2.091-1.972q.578-.5,1.178-.984c.1-.077.2-.15.291-.231-.167.145-.357.273-.071.057.221-.168.445-.333.67-.5a2.593,2.593,0,0,0,1.1-1.434,2.4,2.4,0,0,0-3.525-2.711,40.946,40.946,0,0,0-5.03,4.275c-1.462,1.469-2.818,3.038-4.152,4.624a2.569,2.569,0,0,0-.7,1.7,2.4,2.4,0,0,0,4.1,1.7Z"/>
<path class="d" d="M89.514,69.467c.048-1.612.083-3.225.12-4.837.059-2.6.472-5.576-1.787-7.442a6.305,6.305,0,0,0-4.281-1.379l-4.491-.038a5.8,5.8,0,0,0-4.226,1.45,5.384,5.384,0,0,0-1.617,3.912c-.058,2.665-.123,5.336-.074,8a2.4,2.4,0,0,0,4.8,0c-.037-2.029.008-4.06.041-6.088q.015-.818.028-1.636c0-.123,0-.245.006-.368,0-.147.11-.391-.014-.088-.134.327,0,.047.029-.063.134-.5,0,.084-.054.075,0,0,.13-.231.147-.263.2-.389-.059.149-.107.126,0,0,.246-.236.265-.263.161-.227-.388.2-.126.107a1.257,1.257,0,0,0,.263-.146c.261-.175-.439.2-.149.075.232-.1.257.064.058-.04-.217.022-.22.025-.007.007l.16,0c1.3-.026,2.614.023,3.919.034a14.5,14.5,0,0,0,1.921.017c.317-.041-.46-.114-.155-.031.1.028.206.045.307.076l.076.023q.292.108,0,0c-.19-.082-.194-.077-.01.016l.132.081c.422.223-.223-.278-.063-.046a1.162,1.162,0,0,0,.213.219c.225.184-.2-.39-.1-.119a1.22,1.22,0,0,0,.154.266c.182.239-.127-.441-.062-.144a2.905,2.905,0,0,0,.083.3c.1.3-.007-.484-.02-.162-.006.168,0,.339,0,.508q-.03,1.559-.067,3.117c-.036,1.582-.07,3.164-.117,4.746a2.42,2.42,0,0,0,2.4,2.4,2.448,2.448,0,0,0,2.4-2.4Z"/>
<path class="d" d="M140.118,102.781c1.284.438,2,2.267,2.392,3.569a21.634,21.634,0,0,1,.772,6.7,20.985,20.985,0,0,1-1.192,7.583,6.126,6.126,0,0,1-1.081,1.658,1.105,1.105,0,0,1-.9.225,3.529,3.529,0,0,1-.7-.168c-.165-.067-.7-.5-.229-.079-2.3-2.044-5.71,1.338-3.394,3.394a6.946,6.946,0,0,0,4.852,1.634,6.14,6.14,0,0,0,4.719-2.757c1.979-2.7,2.521-6.47,2.678-9.723.273-5.635-.187-14.469-6.636-16.665-2.931-1-4.189,3.636-1.276,4.628Z"/>
<path class="d" d="M103.034,59.751A3.694,3.694,0,0,0,99.2,63.427a3.788,3.788,0,1,0,7.575.093A3.69,3.69,0,0,0,103.034,59.751Z"/>
<path class="d" d="M117.4,59.9a3.694,3.694,0,0,0-3.832,3.677,3.787,3.787,0,1,0,7.574.092A3.69,3.69,0,0,0,117.4,59.9Z"/>
<path class="d" d="M131.773,60.081a3.693,3.693,0,0,0-3.833,3.676,3.788,3.788,0,1,0,7.575.092A3.69,3.69,0,0,0,131.773,60.081Z"/>
<path class="d" d="M146.142,60.239a3.694,3.694,0,0,0-3.833,3.676,3.788,3.788,0,1,0,7.575.093A3.69,3.69,0,0,0,146.142,60.239Z"/>
<path class="d" d="M232.017,70.241c.045-1.548.079-3.1.114-4.644.058-2.523.447-5.4-1.742-7.212a6.157,6.157,0,0,0-4.178-1.352L221.9,57a5.665,5.665,0,0,0-4.125,1.42,5.269,5.269,0,0,0-1.581,3.823c-.054,2.558-.117,5.123-.07,7.681a2.4,2.4,0,0,0,4.8,0c-.036-1.948.007-3.9.04-5.844q.012-.786.026-1.571c0-.117,0-.235.006-.353s.069-.439-.016-.071,0,.044.027-.048c.125-.475.026.079-.062.094.005,0,.124-.219.141-.252.188-.366-.058.148-.117.14a2.4,2.4,0,0,0,.254-.252c.163-.225-.4.212-.14.118a1.337,1.337,0,0,0,.253-.141c.256-.171-.455.2-.167.082.162-.065.348.014.043-.037-.38-.062.018.008.135.006,1.251-.025,2.509.022,3.761.032a15.154,15.154,0,0,0,1.845.017c.314-.037-.477-.115-.175-.033.1.026.2.043.3.073l.073.022q.287.106-.01-.009c-.194-.084-.2-.08-.02.011l.126.077c.415.219-.243-.289-.08-.058a1.233,1.233,0,0,0,.205.21c.222.184-.215-.4-.109-.134a1.305,1.305,0,0,0,.147.256c.179.238-.134-.456-.069-.162a3.005,3.005,0,0,0,.08.292c.1.3-.011-.5-.022-.181-.006.161,0,.325,0,.487q-.03,1.5-.065,2.993c-.034,1.519-.068,3.038-.112,4.556a2.419,2.419,0,0,0,2.4,2.4,2.448,2.448,0,0,0,2.4-2.4Z"/>
<path class="d" d="M245.762,60.9a3.547,3.547,0,0,0-3.679,3.53,3.636,3.636,0,1,0,7.272.088A3.544,3.544,0,0,0,245.762,60.9Z"/>
<path class="d" d="M260.131,61.054a3.546,3.546,0,0,0-3.679,3.529,3.636,3.636,0,1,0,7.272.089A3.543,3.543,0,0,0,260.131,61.054Z"/>
<path class="d" d="M274.5,61.231a3.545,3.545,0,0,0-3.679,3.529,3.636,3.636,0,1,0,7.271.089A3.542,3.542,0,0,0,274.5,61.231Z"/>
<path class="d" d="M288.87,61.389a3.546,3.546,0,0,0-3.679,3.53,3.636,3.636,0,1,0,7.272.088A3.544,3.544,0,0,0,288.87,61.389Z"/>
<path class="d" d="M180.065,121.4a10.844,10.844,0,0,0,5.559-2.953,14.042,14.042,0,0,0,3.283-6.222,2,2,0,0,0-3.858-1.063,12.476,12.476,0,0,1-.434,1.464c-.044.122-.094.243-.14.365-.089.234.181-.392.024-.061-.109.231-.216.462-.335.689a11.943,11.943,0,0,1-.744,1.226c-.059.084-.12.165-.178.249-.234.338.258-.314.018-.02-.15.185-.3.368-.464.544-.1.11-.2.217-.314.317-.061.056-.125.108-.186.162-.243.213.113-.066.158-.118a4.144,4.144,0,0,1-1.058.683q-.285.159-.581.3c-.058.028-.246.074-.282.13.285-.118.328-.136.127-.054l-.12.047a10.412,10.412,0,0,1-1.538.458,2.016,2.016,0,0,0-1.4,2.461,2.046,2.046,0,0,0,2.46,1.4Z"/>
</g>
</svg>