<!DOCTYPE svg PUBLIC "-//W3C//DTD SVG 1.1//EN" "http://www.w3.org/Graphics/SVG/1.1/DTD/svg11.dtd">
<!-- Uploaded to: SVG Repo, www.svgrepo.com, Transformed by: SVG Repo Mixer Tools -->
<svg width="800px" height="800px" viewBox="0 0 32 32" xmlns="http://www.w3.org/2000/svg" fill="#5C8374" stroke="#5C8374">
<g id="SVGRepo_bgCarrier" stroke-width="0"/>
<g id="SVGRepo_tracerCarrier" stroke-linecap="round" stroke-linejoin="round"/>
<g id="SVGRepo_iconCarrier"> <g id="a"/> <g id="b"> <path d="M29,10H3c-.5523,0-1,.4477-1,1v15c0,.5522,.4477,1,1,1H29c.5523,0,1-.4478,1-1V11c0-.5523-.4477-1-1-1ZM10.3983,22.7578l-2.1819-1.9645,1.1942-2.6821,2.9199,.3069,.6104,2.8718-2.5426,1.468Zm12.4168-2.4088l-4.3301-2.5,1.5-2.598,4.3301,2.5-1.5,2.598Z" style="fill:#9EC8B9cfb1fc;"/> <path d="M29,9h-5.1843c.1121-.3143,.1843-.6476,.1843-1,0-1.6543-1.3457-3-3-3H11c-1.6543,0-3,1.3457-3,3,0,.3524,.0723,.6857,.1843,1H3c-1.1025,0-2,.897-2,2v15c0,1.103,.8975,2,2,2H29c1.1025,0,2-.897,2-2V11c0-1.103-.8975-2-2-2Zm-19-1c0-.5513,.4482-1,1-1h10c.5518,0,1,.4487,1,1s-.4482,1-1,1H11c-.5518,0-1-.4487-1-1ZM3,26V11H29l.001,15H3Zm21.8154-9.1152l-4.3301-2.5c-.2305-.1328-.5039-.1694-.7588-.0996-.2559,.0684-.4746,.2363-.6074,.4658l-1.5,2.5981c-.2764,.4785-.1123,1.0898,.3662,1.3662l4.3301,2.5c.1533,.0884,.3262,.1338,.5,.1338,.0869,0,.1738-.0112,.2588-.0342,.2559-.0684,.4746-.2363,.6074-.4658l1.5-2.5981c.2764-.4785,.1123-1.0898-.3662-1.3662Zm-2.3662,2.0981l-2.5977-1.5,.5-.8657,2.5977,1.5-.5,.8657Zm-9.1406-.7729c-.0908-.4238-.4434-.7412-.874-.7866l-2.9199-.3066c-.4375-.0386-.8418,.1929-1.0186,.5879l-1.1934,2.6821c-.1758,.396-.0771,.8599,.2451,1.1499l2.1816,1.9644c.1885,.1694,.4277,.2568,.6689,.2568,.1719,0,.3447-.0439,.5-.1338l2.542-1.4678c.375-.2168,.5684-.6504,.4785-1.0742l-.6104-2.8721Zm-2.7812,3.3184l-1.1016-.9922,.6025-1.3545,1.4746,.1548,.3086,1.4507-1.2842,.7412Z" style="fill:#9EC8B9;"/> </g> </g>
</svg>