<!DOCTYPE svg PUBLIC "-//W3C//DTD SVG 1.1//EN" "http://www.w3.org/Graphics/SVG/1.1/DTD/svg11.dtd">
<!-- Uploaded to: SVG Repo, www.svgrepo.com, Transformed by: SVG Repo Mixer Tools -->
<svg height="800px" width="800px" version="1.1" id="Layer_1" xmlns="http://www.w3.org/2000/svg" xmlns:xlink="http://www.w3.org/1999/xlink" viewBox="0 0 511.999 511.999" xml:space="preserve" fill="#9EC8B9" stroke="#9EC8B9">
<g id="SVGRepo_bgCarrier" stroke-width="0"/>
<g id="SVGRepo_tracerCarrier" stroke-linecap="round" stroke-linejoin="round"/>
<g id="SVGRepo_iconCarrier"> <path style="fill:#5C8374;" d="M357.827,242.277H169.943l-52.601-196.29c-6.512-24.303-31.487-38.72-55.777-32.208 c-7.356,1.967-13.819,5.633-19.049,10.459C30.445,35.357,24.812,52.621,29.357,69.556L91,299.618 c5.523,20.588,24.29,34.077,44.671,33.76h222.157c14.271,0,26.062-10.642,27.858-24.437c0.159-1.197,0.244-2.419,0.244-3.666 v-34.896C385.93,254.862,373.345,242.277,357.827,242.277z"/> <path style="fill:#5C8374000030;" d="M484.203,417.228H378.872c-0.087,0-0.175,0.002-0.26,0.001c-1.97,0-3.692-1.323-4.207-3.239 l-18.327-68.398h1.747c22.233,0,40.321-18.088,40.321-40.321v-34.887c0-22.233-18.088-40.321-40.321-40.321H179.32l-12.071-45.047 h126.326c6.748,0,12.219-5.47,12.219-12.218c0-6.748-5.47-12.218-12.219-12.218H160.701L129.148,42.822 c-8.244-30.767-39.98-49.093-70.748-40.846C27.635,10.22,9.312,41.956,17.554,72.723l61.644,230.056 c6.787,25.329,29.63,42.822,55.751,42.82c0.272,0,0.55-0.002,0.822-0.006h98.761v141.969h-98.049 c-6.748,0-12.218,5.47-12.218,12.218c0,6.748,5.47,12.219,12.218,12.219h220.534c6.748,0,12.219-5.47,12.219-12.219 c0-6.748-5.47-12.218-12.219-12.218h-98.048V345.593h71.809l20.021,74.723c3.385,12.628,14.778,21.351,27.804,21.351 c0.116,0,0.232-0.001,0.348-0.002H484.2c6.748,0,12.219-5.47,12.219-12.218C496.421,422.699,490.951,417.228,484.203,417.228z M64.725,25.579c2.879-0.771,5.77-1.139,8.618-1.139c14.714,0,28.216,9.833,32.201,24.706l29.858,111.433H66.394L41.159,66.398 C36.403,48.648,46.975,30.336,64.725,25.579z M135.677,321.156c-0.064,0-0.128,0-0.192,0.001 c-15.293,0.194-28.721-9.919-32.683-24.705l-29.86-111.438h69.008l16.192,60.428c1.431,5.342,6.272,9.056,11.802,9.056h187.883 c8.758,0,15.884,7.126,15.884,15.884v34.887c0,8.759-7.126,15.884-15.884,15.884H135.677V321.156z"/> </g>
</svg>