<!DOCTYPE svg PUBLIC "-//W3C//DTD SVG 1.1//EN" "http://www.w3.org/Graphics/SVG/1.1/DTD/svg11.dtd">
<!-- Uploaded to: SVG Repo, www.svgrepo.com, Transformed by: SVG Repo Mixer Tools -->
<svg width="800px" height="800px" viewBox="0 0 48 48" xmlns="http://www.w3.org/2000/svg" fill="#9EC8B9" stroke="#9EC8B9">
<g id="SVGRepo_bgCarrier" stroke-width="0"/>
<g id="SVGRepo_tracerCarrier" stroke-linecap="round" stroke-linejoin="round"/>
<g id="SVGRepo_iconCarrier"> <title>user-data-solid</title> <g id="Layer_2" data-name="Layer 2"> <g id="invisible_box" data-name="invisible box"> <rect width="48" height="48" fill="none"/> </g> <g id="Q3_icons" data-name="Q3 icons"> <path d="M41,2H7A2.9,2.9,0,0,0,4,5V43a2.9,2.9,0,0,0,3,3H41a2.9,2.9,0,0,0,3-3V5A2.9,2.9,0,0,0,41,2ZM24,5a6,6,0,1,1-6,6A6,6,0,0,1,24,5ZM13,23a18,18,0,0,1,11-4,18,18,0,0,1,11,4v3a2,2,0,0,1-2,2H15a2,2,0,0,1-2-2Zm1,19a2,2,0,1,1,2-2A2,2,0,0,1,14,42Zm0-6a2,2,0,1,1,2-2A2,2,0,0,1,14,36Zm20,6H22a2,2,0,0,1,0-4H34a2,2,0,0,1,0,4Zm0-6H22a2,2,0,0,1,0-4H34a2,2,0,0,1,0,4Z"/> </g> </g> </g>
</svg>