<?xml version="1.0" encoding="utf-8"?><svg xml:space="preserve" viewBox="0 0 100 100" y="0" x="0" xmlns="http://www.w3.org/2000/svg" id="圖層_1" version="1.1" width="200px" height="200px" xmlns:xlink="http://www.w3.org/1999/xlink" style="width:100%;height:100%;background-size:initial;background-repeat-y:initial;background-repeat-x:initial;background-position-y:initial;background-position-x:initial;background-origin:initial;background-color:initial;background-clip:initial;background-attachment:initial;animation-play-state:paused" ><g class="ldl-scale" style="transform-origin:50% 50%;transform:rotate(0deg) scale(0.8, 0.8);animation-play-state:paused" ><path d="M27.1 90.5L49.5 80l-2.6-11.8-19.8 15.3z" fill="#333" style="fill:rgb(147, 219, 233);animation-play-state:paused" ></path>
<path d="M72.3 90.5L49.9 80l2.6-11.8 19.8 15.3z" fill="#333" style="fill:rgb(147, 219, 233);animation-play-state:paused" ></path>
<path d="M92.5 62.1L50 48.2V27.5l42.5 27.1z" fill="#333" style="fill:rgb(147, 219, 233);animation-play-state:paused" ></path>
<path d="M7.5 62.1L50 48.2V27.5L7.5 54.6z" fill="#333" style="fill:rgb(147, 219, 233);animation-play-state:paused" ></path>
<path fill="#333" d="M50 80c-4 0-7.3-3.8-7.3-8.4l-1.2-46.7c0-4.7 3.1-15.4 7.7-15.4 4.7 0 9.1 10.7 9.1 15.4l-1.2 46.7C57.3 76.2 54 80 50 80z" style="fill:rgb(147, 219, 233);animation-play-state:paused" ></path>
<path d="M56.7 79.4L50 90.5l-6.7-11.1 6.7-6.7z" fill="#333" style="fill:rgb(147, 219, 233);animation-play-state:paused" ></path>
<metadata xmlns:d="https://loading.io/stock/" style="animation-play-state:paused" ><d:name style="animation-play-state:paused" >airplane</d:name>


<d:tags style="animation-play-state:paused" >aircraft,aeronautics,aviation,boeing,airliner,airbus,jet,fly,airplane,transportation</d:tags>


<d:license style="animation-play-state:paused" >by</d:license>


<d:slug style="animation-play-state:paused" >umobri</d:slug></metadata></g><!-- generated by https://loading.io/ --></svg>